<svg width="49" height="48" viewBox="0 0 49 48" fill="none" xmlns="http://www.w3.org/2000/svg">
<path d="M26.25 22H35.85C38.0902 22 39.2103 22 40.066 22.436C40.8186 22.8195 41.4305 23.4314 41.814 24.184C42.25 25.0397 42.25 26.1598 42.25 28.4V42M26.25 42V12.4C26.25 10.1598 26.25 9.03969 25.814 8.18404C25.4305 7.43139 24.8186 6.81947 24.066 6.43597C23.2103 6 22.0902 6 19.85 6H12.65C10.4098 6 9.28969 6 8.43404 6.43597C7.68139 6.81947 7.06947 7.43139 6.68597 8.18404C6.25 9.03969 6.25 10.1598 6.25 12.4V42M44.25 42H4.25M13.25 14H19.25M13.25 22H19.25M13.25 30H19.25" stroke="currentColor" stroke-width="2" stroke-linecap="round" stroke-linejoin="round"/>
</svg>
