<svg width="49" height="48" viewBox="0 0 49 48" fill="none" xmlns="http://www.w3.org/2000/svg">
<path d="M24.5001 4C29.5027 9.47671 32.3456 16.5841 32.5001 24C32.3456 31.4159 29.5027 38.5233 24.5001 44M24.5001 4C19.4976 9.47671 16.6546 16.5841 16.5001 24C16.6546 31.4159 19.4976 38.5233 24.5001 44M24.5001 4C13.4544 4 4.50012 12.9543 4.50012 24C4.50012 35.0457 13.4544 44 24.5001 44M24.5001 4C35.5458 4 44.5001 12.9543 44.5001 24C44.5001 35.0457 35.5458 44 24.5001 44M5.50016 18H43.5002M5.50012 30H43.5001" stroke="currentColor" stroke-width="2" stroke-linecap="round" stroke-linejoin="round"/>
</svg>
