<svg width="32" height="32" viewBox="0 0 32 32" fill="none" xmlns="http://www.w3.org/2000/svg">
<path d="M16 16L10.3028 11.2524C9.45633 10.547 9.0331 10.1943 8.72883 9.76194C8.45924 9.37886 8.25903 8.95141 8.13733 8.49906C7.99998 7.98854 7.99998 7.43761 7.99998 6.33575V2.66669M16 16L21.6972 11.2524C22.5436 10.547 22.9669 10.1943 23.2711 9.76194C23.5407 9.37886 23.7409 8.95141 23.8626 8.49906C24 7.98854 24 7.43761 24 6.33575V2.66669M16 16L10.3028 20.7477C9.45633 21.4531 9.0331 21.8058 8.72883 22.2381C8.45924 22.6212 8.25903 23.0486 8.13733 23.501C7.99998 24.0115 7.99998 24.5624 7.99998 25.6643V29.3334M16 16L21.6972 20.7477C22.5436 21.4531 22.9669 21.8058 23.2711 22.2381C23.5407 22.6212 23.7409 23.0486 23.8626 23.501C24 24.0115 24 24.5624 24 25.6643V29.3334M5.33331 2.66669H26.6666M5.33331 29.3334H26.6666" stroke="currentColor" stroke-width="2" stroke-linecap="round" stroke-linejoin="round"/>
</svg>
