<svg width="32" height="32" viewBox="0 0 32 32" fill="none" xmlns="http://www.w3.org/2000/svg">
<path d="M13.3333 20.0001L9.23295 24.1517C8.66101 24.7308 8.37503 25.0203 8.12923 25.0407C7.91598 25.0585 7.70718 24.9727 7.5679 24.8103C7.40737 24.623 7.40737 24.2161 7.40737 23.4021V21.3222C7.40737 20.592 6.80939 20.0637 6.0869 19.9578V19.9578C4.33828 19.7017 2.96499 18.3284 2.70886 16.5798C2.66663 16.2915 2.66663 15.9474 2.66663 15.2593V9.06675C2.66663 6.82654 2.66663 5.70643 3.1026 4.85079C3.48609 4.09814 4.09802 3.48622 4.85066 3.10272C5.70631 2.66675 6.82642 2.66675 9.06663 2.66675H18.9333C21.1735 2.66675 22.2936 2.66675 23.1493 3.10272C23.9019 3.48622 24.5138 4.09814 24.8973 4.85079C25.3333 5.70643 25.3333 6.82654 25.3333 9.06675V14.6667M25.3333 29.3334L22.4314 27.3159C22.0235 27.0323 21.8195 26.8905 21.5976 26.79C21.4006 26.7008 21.1934 26.6358 20.9807 26.5966C20.7411 26.5525 20.4927 26.5525 19.9959 26.5525H17.6C16.1065 26.5525 15.3597 26.5525 14.7893 26.2618C14.2876 26.0062 13.8796 25.5982 13.6239 25.0964C13.3333 24.526 13.3333 23.7793 13.3333 22.2858V18.9334C13.3333 17.4399 13.3333 16.6932 13.6239 16.1228C13.8796 15.621 14.2876 15.2131 14.7893 14.9574C15.3597 14.6667 16.1065 14.6667 17.6 14.6667H25.0666C26.5601 14.6667 27.3068 14.6667 27.8773 14.9574C28.379 15.2131 28.787 15.621 29.0426 16.1228C29.3333 16.6932 29.3333 17.4399 29.3333 18.9334V22.5525C29.3333 23.795 29.3333 24.4162 29.1303 24.9063C28.8597 25.5597 28.3405 26.0788 27.6871 26.3495C27.1971 26.5525 26.5758 26.5525 25.3333 26.5525V29.3334Z" stroke="currentColor" stroke-width="2" stroke-linecap="round" stroke-linejoin="round"/>
</svg>
