<svg width="32" height="32" viewBox="0 0 32 32" fill="none" xmlns="http://www.w3.org/2000/svg">
<circle cx="16" cy="25" r="2" fill="currentColor"/>
<path d="M20 2.66669V4.53335C20 5.28009 20 5.65346 19.8546 5.93867C19.7268 6.18956 19.5228 6.39353 19.2719 6.52136C18.9867 6.66669 18.6134 6.66669 17.8666 6.66669H14.1333C13.3866 6.66669 13.0132 6.66669 12.728 6.52136C12.4771 6.39353 12.2731 6.18956 12.1453 5.93867C12 5.65346 12 5.28009 12 4.53335V2.66669M10.9333 29.3334H21.0666C22.5601 29.3334 23.3068 29.3334 23.8773 29.0427C24.379 28.787 24.787 28.3791 25.0426 27.8773C25.3333 27.3069 25.3333 26.5602 25.3333 25.0667V6.93335C25.3333 5.43988 25.3333 4.69314 25.0426 4.12271C24.787 3.62095 24.379 3.213 23.8773 2.95734C23.3068 2.66669 22.5601 2.66669 21.0666 2.66669H10.9333C9.43982 2.66669 8.69308 2.66669 8.12265 2.95734C7.62089 3.213 7.21294 3.62095 6.95728 4.12271C6.66663 4.69314 6.66663 5.43988 6.66663 6.93335V25.0667C6.66663 26.5602 6.66663 27.3069 6.95728 27.8773C7.21294 28.3791 7.62089 28.787 8.12265 29.0427C8.69308 29.3334 9.43982 29.3334 10.9333 29.3334Z" stroke="currentColor" stroke-width="2" stroke-linecap="round" stroke-linejoin="round"/>
</svg>
