<svg width="32" height="32" viewBox="0 0 32 32" fill="none" xmlns="http://www.w3.org/2000/svg">
<path d="M18.7329 8.00008C20.0352 8.25417 21.2321 8.89109 22.1703 9.82933C23.1086 10.7676 23.7455 11.9644 23.9996 13.2667M18.7329 2.66675C21.4386 2.96733 23.9617 4.17898 25.8879 6.10276C27.8141 8.02654 29.0289 10.5481 29.3329 13.2534M13.6355 18.4842C12.0334 16.8821 10.7684 15.0705 9.84039 13.1377C9.76057 12.9715 9.72066 12.8883 9.68999 12.7832C9.58103 12.4093 9.6593 11.9503 9.88598 11.6338C9.94977 11.5447 10.026 11.4685 10.1784 11.3161C10.6445 10.8499 10.8776 10.6168 11.03 10.3825C11.6046 9.49862 11.6046 8.35918 11.03 7.47532C10.8776 7.24095 10.6445 7.00788 10.1784 6.54174L9.91856 6.28191C9.20997 5.57332 8.85568 5.21903 8.47517 5.02657C7.71843 4.64381 6.82474 4.64381 6.06799 5.02657C5.68748 5.21903 5.33319 5.57332 4.6246 6.28191L4.41442 6.49209C3.70825 7.19826 3.35517 7.55134 3.08551 8.03138C2.78628 8.56406 2.57113 9.39138 2.57295 10.0023C2.57459 10.5529 2.68139 10.9292 2.895 11.6818C4.04296 15.7264 6.20893 19.5428 9.3929 22.7268C12.5769 25.9108 16.3934 28.0768 20.4379 29.2247C21.1905 29.4383 21.5668 29.5451 22.1174 29.5468C22.7283 29.5486 23.5557 29.3334 24.0883 29.0342C24.5684 28.7645 24.9215 28.4115 25.6276 27.7053L25.8378 27.4951C26.5464 26.7865 26.9007 26.4322 27.0931 26.0517C27.4759 25.295 27.4759 24.4013 27.0931 23.6445C26.9007 23.264 26.5464 22.9097 25.8378 22.2012L25.578 21.9413C25.1118 21.4752 24.8788 21.2421 24.6444 21.0897C23.7605 20.5151 22.6211 20.5151 21.7372 21.0897C21.5029 21.2421 21.2698 21.4752 20.8037 21.9413C20.6512 22.0937 20.575 22.1699 20.486 22.2337C20.1694 22.4604 19.7104 22.5387 19.3366 22.4297C19.2314 22.3991 19.1482 22.3591 18.982 22.2793C17.0492 21.3513 15.2376 20.0863 13.6355 18.4842Z" stroke="currentColor" stroke-width="2" stroke-linecap="round" stroke-linejoin="round"/>
</svg>
