<svg width="32" height="37" viewBox="0 0 32 37" fill="none" xmlns="http://www.w3.org/2000/svg">
<path d="M0 15.6094C0 10.8182 3.83571 6.9375 8.57143 6.9375H9.14286C10.4071 6.9375 11.4286 7.9709 11.4286 9.25C11.4286 10.5291 10.4071 11.5625 9.14286 11.5625H8.57143C6.36429 11.5625 4.57143 13.3764 4.57143 15.6094V16.1875H9.14286C11.6643 16.1875 13.7143 18.2615 13.7143 20.8125V25.4375C13.7143 27.9885 11.6643 30.0625 9.14286 30.0625H4.57143C2.05 30.0625 0 27.9885 0 25.4375V23.125V20.8125V15.6094ZM18.2857 15.6094C18.2857 10.8182 22.1214 6.9375 26.8571 6.9375H27.4286C28.6929 6.9375 29.7143 7.9709 29.7143 9.25C29.7143 10.5291 28.6929 11.5625 27.4286 11.5625H26.8571C24.65 11.5625 22.8571 13.3764 22.8571 15.6094V16.1875H27.4286C29.95 16.1875 32 18.2615 32 20.8125V25.4375C32 27.9885 29.95 30.0625 27.4286 30.0625H22.8571C20.3357 30.0625 18.2857 27.9885 18.2857 25.4375V23.125V20.8125V15.6094Z" fill="currentColor"/>
</svg>
