<?xml version="1.0" encoding="utf-8"?>
<!-- Generator: Adobe Illustrator 24.1.2, SVG Export Plug-In . SVG Version: 6.00 Build 0)  -->
<svg version="1.1" id="Layer_1" xmlns="http://www.w3.org/2000/svg" xmlns:xlink="http://www.w3.org/1999/xlink" x="0px" y="0px"
	 viewBox="0 0 213.1 303.5" style="enable-background:new 0 0 213.1 303.5;" xml:space="preserve">
<style type="text/css">
	.st0{fill:#ED1C24;}
</style>
<path d="M70.4,108.9c-2.2-14.3-3.4-29-2.5-42.2c-5.5,1.8-10.9,4-16.1,6.7c-15.7,8-28.8,20.2-38,35.2c-9.2,15-13.8,32-13.8,50.9
	s4.6,35.8,13.8,50.8c4.8,7.9,10.8,15.1,17.7,21.2c-7-20.4-11-40.1-11-53.6C20.4,147.4,40.9,121,70.4,108.9z"/>
<path d="M199.3,108.7c-9.2-15-22.3-27.2-38-35.2c-5.2-2.7-10.7-5-16.2-6.8c0.9,13.1-0.3,27.9-2.5,42.2
	c29.5,12.1,50.1,38.4,50.1,69.1c0,13.6-4,33.2-11,53.7c6.9-6.2,12.9-13.3,17.7-21.2c9.2-15,13.8-32,13.8-50.8
	C213.2,140.7,208.6,123.7,199.3,108.7z"/>
<path d="M126.8,122.7c4.2-21.4,7.1-45.8,4-64.6c-3.5-20.8-11.6-40.6-23.7-58h-1.2v0.1c-12,17.4-20,37.1-23.6,58
	c-3.1,18.9-0.3,43.2,4,64.6L62.6,149l18.7,45.4l18.8-15.7l6.4,33.3l6.6-33.4l18.9,15.8l18.6-45.4L126.8,122.7z M106.6,106.7
	c-5.1,0-9.2-4.1-9.2-9.2s4.1-9.2,9.2-9.2c5.1,0,9.2,4.1,9.2,9.2c0,0,0,0,0,0C115.8,102.6,111.6,106.7,106.6,106.7z M106.6,70.9
	c-5.1,0-9.2-4.1-9.2-9.2c0-5.1,4.1-9.2,9.2-9.2c5.1,0,9.2,4.1,9.2,9.2v0C115.8,66.8,111.7,70.9,106.6,70.9z"/>
<path class="st0" d="M118.8,202.9c1.8,3.7,2.8,7.9,2.8,12.1c0.1,16.9-13.4,36.2-14,36.8c-0.5,0.6-1.5,0.7-2.1,0.1
	c0,0-0.1-0.1-0.1-0.1c-0.6-0.6-14-15.6-14-36.8c0-4.2,0.9-8.3,2.8-12.1c-10.5,6.6-17.8,21.3-17.8,38.3c0,30.8,23.2,55.5,30.1,62.4
	c6.9-7,30.2-32.2,30.2-62.4C136.7,224.1,129.3,209.4,118.8,202.9z"/>
</svg>
