<svg xmlns="http://www.w3.org/2000/svg" width="213.1" height="303.55" viewBox="0 0 213.1 303.55"><path d="M70.37,108.94c-2.17-14.3-3.39-29-2.5-42.17A106.19,106.19,0,0,0,51.79,73.5a95.13,95.13,0,0,0-38,35.2Q0,131.23,0,159.55t13.76,50.84A93.83,93.83,0,0,0,31.47,231.6c-7-20.44-11-40.1-11-53.65C20.44,147.35,40.91,121,70.37,108.94Z"/><path d="M199.34,108.7a95.15,95.15,0,0,0-38-35.2,107.84,107.84,0,0,0-16.24-6.79c.9,13.13-.31,27.87-2.48,42.16,29.54,12.07,50.08,38.42,50.08,69.08,0,13.55-4,33.21-11,53.65a94.09,94.09,0,0,0,17.71-21.21q13.75-22.51,13.76-50.84T199.34,108.7Z"/><path d="M126.8,122.66c4.21-21.43,7.08-45.76,4-64.64A144.49,144.49,0,0,0,107.14,0h-1.21V.05A144.57,144.57,0,0,0,82.35,58c-3.13,18.87-.25,43.2,4,64.62L62.57,149l18.68,45.43L100,178.69,106.43,212,113,178.63l18.88,15.81L150.53,149Zm-20.25-15.93a9.24,9.24,0,1,1,9.24-9.23A9.24,9.24,0,0,1,106.55,106.73Zm0-35.82a9.24,9.24,0,1,1,9.24-9.24A9.24,9.24,0,0,1,106.55,70.91Z"/><path d="M118.85,202.85a26.82,26.82,0,0,1,2.76,12.06c.07,16.93-13.4,36.22-14,36.79a1.46,1.46,0,0,1-2.18,0c-.57-.57-14-15.63-14-36.8a26.78,26.78,0,0,1,2.76-12.05c-10.49,6.58-17.83,21.27-17.83,38.31,0,30.8,23.17,55.54,30.1,62.39,6.91-7,30.15-32.16,30.15-62.36C136.67,224.12,129.34,209.43,118.85,202.85Z"/></svg>