<svg width="48" height="48" viewBox="0 0 48 48" fill="none" xmlns="http://www.w3.org/2000/svg">
<path d="M44 42V38C44 34.2723 41.4505 31.1401 38 30.252M31 6.58152C33.9318 7.76829 36 10.6426 36 14C36 17.3574 33.9318 20.2317 31 21.4185M34 42C34 38.2725 34 36.4087 33.391 34.9385C32.5791 32.9783 31.0217 31.4209 29.0615 30.609C27.5913 30 25.7275 30 22 30H16C12.2725 30 10.4087 30 8.93853 30.609C6.97831 31.4209 5.42092 32.9783 4.60896 34.9385C4 36.4087 4 38.2725 4 42M27 14C27 18.4183 23.4183 22 19 22C14.5817 22 11 18.4183 11 14C11 9.58172 14.5817 6 19 6C23.4183 6 27 9.58172 27 14Z" stroke="currentColor" stroke-width="2" stroke-linecap="round" stroke-linejoin="round"/>
</svg>
