<svg xmlns="http://www.w3.org/2000/svg" width="211.8" height="32" viewBox="0 0 211.8 32"><path d="M8.53,21.79H6.71v5H0V6.89H9.58a11.73,11.73,0,0,1,4.81.91,7.1,7.1,0,0,1,3.15,2.61,7.16,7.16,0,0,1,1.11,4,7.06,7.06,0,0,1-1,3.72,6.86,6.86,0,0,1-2.79,2.53l4.18,6.14H11.91Zm2.67-9.11a3,3,0,0,0-2-.62H6.71v4.67H9.16a3,3,0,0,0,2-.61,2.18,2.18,0,0,0,.69-1.72A2.17,2.17,0,0,0,11.2,12.68Z" style="fill:#fff"/><path d="M49.9,25.93a9.88,9.88,0,0,1-4-3.7,10.18,10.18,0,0,1-1.44-5.39,10.21,10.21,0,0,1,1.44-5.39,9.86,9.86,0,0,1,4-3.69,12,12,0,0,1,5.69-1.33,12.57,12.57,0,0,1,5.18,1,9.72,9.72,0,0,1,3.75,3L60.28,14.2a5.42,5.42,0,0,0-4.35-2.34,4.44,4.44,0,0,0-3.38,1.36,5,5,0,0,0-1.28,3.62,5.07,5.07,0,0,0,1.28,3.63,4.44,4.44,0,0,0,3.38,1.35,5.44,5.44,0,0,0,4.35-2.33l4.24,3.78a9.74,9.74,0,0,1-3.75,3,12.57,12.57,0,0,1-5.18,1A12.14,12.14,0,0,1,49.9,25.93Z" style="fill:#fff"/><path d="M74.56,20.2l-1.51,1.67v4.92h-6.6V6.89h6.6v7.22l6.54-7.22H86.9l-8,8.76L87.3,26.79H79.53Z" style="fill:#fff"/><path d="M104.76,21.73v5.06H88.21V6.89h16.18V12H94.8v2.33h8.42v4.84H94.8v2.61Z" style="fill:#fff"/><path d="M111.67,12.09h-5.83V6.89h18.37v5.2h-5.83v14.7h-6.71Z" style="fill:#fff"/><path d="M126.64,26.27a6.31,6.31,0,0,1-2.48-2.12l1.65-1.93A4.92,4.92,0,0,0,130,24.58a3.17,3.17,0,0,0,2.55-1,4.54,4.54,0,0,0,.86-3V9.36h-7.19V6.89h10V20.4a7,7,0,0,1-1.58,5A6.1,6.1,0,0,1,130,27,7.45,7.45,0,0,1,126.64,26.27Z" style="fill:#fff"/><path d="M142.72,25.7a9.78,9.78,0,0,1-3.79-3.65,10,10,0,0,1-1.38-5.21,10,10,0,0,1,1.38-5.2A9.81,9.81,0,0,1,142.72,8a11.2,11.2,0,0,1,5.44-1.32A11.07,11.07,0,0,1,153.56,8a9.8,9.8,0,0,1,3.78,3.64,10.12,10.12,0,0,1,1.37,5.22,10.09,10.09,0,0,1-1.37,5.22,9.73,9.73,0,0,1-3.78,3.64,11.07,11.07,0,0,1-5.4,1.32A11.2,11.2,0,0,1,142.72,25.7Zm9.37-2.2a7.29,7.29,0,0,0,2.76-2.75,7.7,7.7,0,0,0,1-3.91,7.72,7.72,0,0,0-1-3.91,7.26,7.26,0,0,0-2.76-2.74,7.74,7.74,0,0,0-3.93-1,7.91,7.91,0,0,0-4,1,7.2,7.2,0,0,0-2.79,2.74,7.72,7.72,0,0,0-1,3.91,7.7,7.7,0,0,0,1,3.91,7.23,7.23,0,0,0,2.79,2.75,8,8,0,0,0,4,1A7.83,7.83,0,0,0,152.09,23.5Z" style="fill:#fff"/><path d="M177.33,6.89v19.9H175L163.05,12V26.79h-2.84V6.89h2.33l11.94,14.84V6.89Z" style="fill:#fff"/><path d="M194.68,24.32v2.47H180.24V6.89h14V9.36h-11.2v6.12h10v2.41h-10v6.43Z" style="fill:#fff"/><path d="M199.76,26.32a8.83,8.83,0,0,1-3.29-1.8l1.06-2.22A8.58,8.58,0,0,0,200.44,24a10.59,10.59,0,0,0,3.65.64,6.67,6.67,0,0,0,3.7-.83A2.58,2.58,0,0,0,209,21.53a2.21,2.21,0,0,0-.66-1.66,4.53,4.53,0,0,0-1.65-1c-.66-.23-1.58-.48-2.78-.77A28.88,28.88,0,0,1,200.3,17a5.94,5.94,0,0,1-2.36-1.66,4.42,4.42,0,0,1-1-3,5.11,5.11,0,0,1,.84-2.87,5.63,5.63,0,0,1,2.54-2.05,10.37,10.37,0,0,1,4.24-.77,13.18,13.18,0,0,1,3.47.46A9.48,9.48,0,0,1,211,8.42L210,10.7a10.6,10.6,0,0,0-2.68-1.21,10.06,10.06,0,0,0-2.78-.41A6.15,6.15,0,0,0,201,10a2.72,2.72,0,0,0-1.21,2.27,2.17,2.17,0,0,0,.69,1.67,4.61,4.61,0,0,0,1.69,1,26.72,26.72,0,0,0,2.74.76,27.67,27.67,0,0,1,3.61,1.08,6.06,6.06,0,0,1,2.35,1.65,4.35,4.35,0,0,1,1,3,5.05,5.05,0,0,1-.85,2.86,5.71,5.71,0,0,1-2.59,2.05,10.78,10.78,0,0,1-4.27.75A13.45,13.45,0,0,1,199.76,26.32Z" style="fill:#fff"/><path d="M27.73,11.48A21.18,21.18,0,0,1,27.46,7a10.42,10.42,0,0,0-1.69.71,10,10,0,0,0-5.46,9.07,10,10,0,0,0,1.45,5.36,9.77,9.77,0,0,0,1.86,2.23,19,19,0,0,1-1.16-5.65A8,8,0,0,1,27.73,11.48Z" style="fill:#fff"/><path d="M41.32,11.46a10,10,0,0,0-4-3.71A11.67,11.67,0,0,0,35.6,7a21.24,21.24,0,0,1-.26,4.45,8,8,0,0,1,5.28,7.28,19.05,19.05,0,0,1-1.17,5.65,9.81,9.81,0,0,0,1.87-2.23,10,10,0,0,0,1.45-5.36A10,10,0,0,0,41.32,11.46Z" style="fill:#fff"/><path d="M33.67,12.93a20.49,20.49,0,0,0,.42-6.81A15.3,15.3,0,0,0,31.6,0h-.13A15.19,15.19,0,0,0,29,6.12a20.49,20.49,0,0,0,.42,6.81L26.9,15.71l2,4.79,2-1.66.68,3.51.69-3.52,2,1.67,2-4.79Zm-2.13-1.68a1,1,0,1,1,1-1A1,1,0,0,1,31.54,11.25Zm0-3.77a1,1,0,1,1,1-1A1,1,0,0,1,31.54,7.48Z" style="fill:#fff"/><path d="M32.84,21.38a2.87,2.87,0,0,1,.29,1.28,8,8,0,0,1-1.48,3.87.15.15,0,0,1-.23,0A6.21,6.21,0,0,1,30,22.65a2.86,2.86,0,0,1,.29-1.27,4.78,4.78,0,0,0-1.88,4c0,3.25,2.45,5.86,3.18,6.58.72-.74,3.17-3.39,3.17-6.57A4.78,4.78,0,0,0,32.84,21.38Z" style="fill:#ec2027"/></svg>