<svg xmlns="http://www.w3.org/2000/svg" width="211.7" height="32" viewBox="0 0 211.7 32"><path d="M8.5,21.8H6.7v5H0V6.9H9.6a12.09,12.09,0,0,1,4.8.9,7.53,7.53,0,0,1,3.2,2.6,7.48,7.48,0,0,1,1.1,4,6.41,6.41,0,0,1-1,3.7,6.22,6.22,0,0,1-2.8,2.5l4.2,6.1H11.9Zm2.7-9.1a3,3,0,0,0-2-.6H6.7v4.7H9.1a2.81,2.81,0,0,0,2-.6,2.06,2.06,0,0,0,.7-1.7A2.21,2.21,0,0,0,11.2,12.7Z"/><path d="M49.9,25.9a10.19,10.19,0,0,1-4-3.7,9.91,9.91,0,0,1-1.4-5.4,10.85,10.85,0,0,1,1.4-5.4,10.19,10.19,0,0,1,4-3.7,12,12,0,0,1,5.7-1.3,12.38,12.38,0,0,1,5.2,1,10.15,10.15,0,0,1,3.8,3l-4.2,3.8A5.28,5.28,0,0,0,56,11.9a4.6,4.6,0,0,0-3.4,1.4,4.84,4.84,0,0,0-1.3,3.6,4.84,4.84,0,0,0,1.3,3.6A4.6,4.6,0,0,0,56,21.9a5.7,5.7,0,0,0,4.4-2.3l4.2,3.8a9.43,9.43,0,0,1-3.8,3,12.07,12.07,0,0,1-5.2,1A15,15,0,0,1,49.9,25.9Z"/><path d="M74.6,20.2l-1.5,1.7v4.9H66.5V6.9h6.6v7.2l6.5-7.2h7.3l-8,8.8,8.4,11.1H79.5Z"/><path d="M104.8,21.7v5.1H88.2V6.9h16.2V12H94.8v2.3h8.4v4.8H94.8v2.6Z"/><path d="M111.7,12.1h-5.8V6.9h18.4v5.2h-5.8V26.8h-6.7V12.1Z"/><path d="M126.6,26.3a7.21,7.21,0,0,1-2.5-2.1l1.6-1.9a4.93,4.93,0,0,0,4.2,2.4,2.92,2.92,0,0,0,2.5-1,4.48,4.48,0,0,0,.9-3V9.4h-7.2V6.9h10V20.4c0,2.2-.5,3.9-1.6,5a6.19,6.19,0,0,1-4.6,1.7A10,10,0,0,1,126.6,26.3Z"/><path d="M142.7,25.7a9.66,9.66,0,0,1-3.8-3.7,10.36,10.36,0,0,1,0-10.4,9.66,9.66,0,0,1,3.8-3.7,11.87,11.87,0,0,1,10.8,0,10.13,10.13,0,0,1,3.8,3.6,10.36,10.36,0,0,1,0,10.4,9.41,9.41,0,0,1-3.8,3.6,10.79,10.79,0,0,1-5.4,1.3A9,9,0,0,1,142.7,25.7Zm9.4-2.2a8.06,8.06,0,0,0,2.8-2.7,7.56,7.56,0,0,0,1-3.9,7.56,7.56,0,0,0-1-3.9,6.62,6.62,0,0,0-2.8-2.7,7.56,7.56,0,0,0-3.9-1,7.67,7.67,0,0,0-4,1,8.06,8.06,0,0,0-2.8,2.7,7.56,7.56,0,0,0-1,3.9,7.56,7.56,0,0,0,1,3.9,6.62,6.62,0,0,0,2.8,2.7,7.67,7.67,0,0,0,4,1A7.56,7.56,0,0,0,152.1,23.5Z"/><path d="M177.3,6.9V26.8H175L163.1,12V26.8h-2.8V6.9h2.3l11.9,14.8V6.9Z"/><path d="M194.7,24.3v2.5H180.3V6.9h14V9.4H183.1v6.1h10v2.4h-10v6.4Z"/><path d="M199.8,26.3a10.19,10.19,0,0,1-3.3-1.8l1.1-2.2a10.09,10.09,0,0,0,2.9,1.7,11.48,11.48,0,0,0,3.7.6,7.26,7.26,0,0,0,3.7-.8,2.63,2.63,0,0,0,1.2-2.2,2.19,2.19,0,0,0-.7-1.7,4.35,4.35,0,0,0-1.6-1c-.7-.2-1.6-.5-2.8-.8a26.62,26.62,0,0,1-3.6-1.1,6.6,6.6,0,0,1-2.4-1.7,4.19,4.19,0,0,1-1-3,5.74,5.74,0,0,1,.8-2.9,5.58,5.58,0,0,1,2.5-2,10.14,10.14,0,0,1,4.2-.8,14.08,14.08,0,0,1,3.5.5,8.56,8.56,0,0,1,2.9,1.3l-.9,2.3a11.07,11.07,0,0,0-2.7-1.2,9,9,0,0,0-2.8-.4,6,6,0,0,0-3.6.9,2.68,2.68,0,0,0-1.2,2.3,2.19,2.19,0,0,0,.7,1.7,4.78,4.78,0,0,0,1.7,1c.7.2,1.6.5,2.7.8a26.62,26.62,0,0,1,3.6,1.1,6.34,6.34,0,0,1,2.3,1.6,4,4,0,0,1,1,3,5.21,5.21,0,0,1-.9,2.9,5.37,5.37,0,0,1-2.6,2,11,11,0,0,1-4.3.8A21.66,21.66,0,0,1,199.8,26.3Z"/><path d="M27.7,11.5A23,23,0,0,1,27.5,7a8.65,8.65,0,0,0-1.7.7,10.19,10.19,0,0,0-4,3.7,10,10,0,0,0-1.5,5.4,10,10,0,0,0,1.5,5.4,7.94,7.94,0,0,0,1.9,2.2,20.78,20.78,0,0,1-1.2-5.7A7.93,7.93,0,0,1,27.7,11.5Z"/><path d="M41.3,11.5a10.19,10.19,0,0,0-4-3.7,8.65,8.65,0,0,0-1.7-.7,16.59,16.59,0,0,1-.3,4.4,8.16,8.16,0,0,1,5.3,7.3,18.15,18.15,0,0,1-1.2,5.7,9.74,9.74,0,0,0,3.4-7.6A9.51,9.51,0,0,0,41.3,11.5Z"/><path d="M33.7,12.9a22.8,22.8,0,0,0,.4-6.8A14.37,14.37,0,0,0,31.6,0h-.1A14.37,14.37,0,0,0,29,6.1a22.62,22.62,0,0,0,.4,6.8l-2.5,2.8,2,4.8,2-1.7.7,3.5.7-3.5,2,1.7,2-4.8Zm-2.2-1.6a1,1,0,1,1,1-1A1,1,0,0,1,31.5,11.3Zm0-3.8a1,1,0,0,1-1-1,.94.94,0,0,1,1-1,1,1,0,0,1,1,1A.94.94,0,0,1,31.5,7.5Z"/><path d="M32.8,21.4a2.77,2.77,0,0,1,.3,1.3,7.78,7.78,0,0,1-1.5,3.9c-.1.1-.2.1-.2,0a5.94,5.94,0,0,1-1.5-3.9,2.77,2.77,0,0,1,.3-1.3,4.7,4.7,0,0,0-1.9,4c0,3.2,2.4,5.9,3.2,6.6.7-.7,3.2-3.4,3.2-6.6A4.7,4.7,0,0,0,32.8,21.4Z" style="fill:#ec2027"/></svg>