<svg xmlns="http://www.w3.org/2000/svg" viewBox="0 0 229.44 50"><path d="M52.16,28.85V10.94H60.4v2.68H55.23v4.6h4V20.9h-4v5.26h5.5v2.68H52.16Z" transform="translate(0 0)" style="fill:#fff"/><path d="M65.56,19.48,62.28,11h3l1.88,5.68h0L69,11h3l-3.1,8.53,3.48,9.38h-3l-2.08-6.52h-.06l-2.13,6.52H62Z" transform="translate(0 0)" style="fill:#fff"/><path d="M74.19,28.85V10.94h4.42c3.79,0,5.56,1.47,5.56,5.28S82.4,21.5,78.61,21.5H77.27v7.34H74.19ZM77.27,19h1.19c2,0,2.63-.62,2.63-2.75s-.62-2.75-2.63-2.75H77.27Z" transform="translate(0 0)" style="fill:#fff"/><path d="M86.59,28.85V10.94h8.23v2.68H89.66v4.6h4V20.9h-4v5.26h5.5v2.68H86.59Z" transform="translate(0 0)" style="fill:#fff"/><path d="M100.68,28.85H97.61V10.94h4.31c3.46,0,5.21,1.47,5.21,5.28,0,2.88-1.12,4.05-2.16,4.51l2.6,8.12h-3.12l-2.18-7.42a14.05,14.05,0,0,1-1.58.08v7.34Zm0-9.87h1.09c1.66,0,2.29-.62,2.29-2.75s-.62-2.75-2.29-2.75h-1.09Z" transform="translate(0 0)" style="fill:#fff"/><rect x="110.43" y="10.94" width="3.08" height="17.91" style="fill:#fff"/><path d="M116.9,28.85V10.94h8.23v2.68H120v4.6h4V20.9h-4v5.26h5.5v2.68H116.9Z" transform="translate(0 0)" style="fill:#fff"/><path d="M127.92,28.85V10.94h2.85l3.75,10.24h0V10.94h2.77V28.85h-2.67l-3.92-11.19h-.06V28.85Z" transform="translate(0 0)" style="fill:#fff"/><path d="M146.52,16.92V15.53c0-1.51-.69-2.16-1.49-2.16-1.24,0-1.63.65-1.63,2v9.07c0,1.34.39,2,1.63,2s1.49-.65,1.49-1.81V22.45h3.07v2.07a4.25,4.25,0,0,1-3.9,4.58,4.85,4.85,0,0,1-.66,0c-3.23,0-4.71-2.06-4.71-4.59V15.28c0-2.52,1.48-4.59,4.71-4.59s4.56,2.24,4.56,4.91v1.32Z" transform="translate(0 0)" style="fill:#fff"/><path d="M152.18,28.85V10.94h8.24v2.68h-5.15v4.6h4V20.9h-4v5.26h5.5v2.68h-8.59Z" transform="translate(0 0)" style="fill:#fff"/><path d="M163.19,28.85V10.94h4.42c3.79,0,5.55,1.47,5.55,5.28s-1.76,5.28-5.55,5.28h-1.34v7.34h-3.08ZM166.27,19h1.19c2,0,2.62-.61,2.62-2.75s-.61-2.75-2.62-2.75h-1.19Z" transform="translate(0 0)" style="fill:#fff"/><path d="M175.45,28.85V10.94h3.08V26.18h4.83v2.67Z" transform="translate(0 0)" style="fill:#fff"/><path d="M185.24,10.94h3.08V24.45c0,1.32.52,2,1.64,2s1.64-.65,1.64-2V10.94h3.08v13.4c0,3.07-1.79,4.76-4.72,4.76s-4.72-1.69-4.72-4.76Z" transform="translate(0 0)" style="fill:#fff"/><path d="M203.25,15.36c-.12-1.54-.94-2-1.63-2-1,0-1.54.65-1.54,1.77,0,3.05,6.24,4.51,6.24,9.38,0,2.95-2,4.59-4.85,4.59s-4.5-2.29-4.61-5l2.92-.43c.13,1.82.84,2.71,1.84,2.71a1.58,1.58,0,0,0,1.77-1.37,2.44,2.44,0,0,0,0-.27c0-3.54-6.25-4.48-6.25-9.62,0-2.85,1.75-4.46,4.76-4.46,2.51,0,4,1.8,4.27,4.34l-2.92.32Z" transform="translate(0 0)" style="fill:#fff"/><path d="M209.05,10.94h3.13l-.54,12.65h-2Zm.1,15h2.94v2.93h-2.94Z" transform="translate(0 0)" style="fill:#fff"/><path d="M39.1,35.05c-.1.6,1,.43.87-.14a1,1,0,0,0-.87.14m-2.63.76a1.18,1.18,0,0,0,1.05.28c.52-.84-1-1.14-1.05-.28M23.33,34.67c.29.23.77,0,.62-.54-.39,0-.66.14-.62.54M4.94,37.26c.26.46,1.17,0,1.14-.53-.32-.31-1,.12-1.14.53m1.49-.85a.4.4,0,0,0,.35-.67.41.41,0,0,0-.43.4.38.38,0,0,0,.08.27m20.76-3.93a.56.56,0,0,0,.43-.16c.12-.54-.6-.31-.43.16m-3.33-2.93c-.62.53-1.58.77-1.83,1.61a4.61,4.61,0,0,0,1.75-.44c.22-.09.51,0,.7-.11A12.18,12.18,0,0,0,26,29.76c.44-.27,1.12-.66,1.13-1.06-.88-.32-2.23,1.4-3.24.86M36,22.72V23c.17.15.5,0,.7-.11,0-.34-.49-.36-.7-.16m-2.63-1.44c-.44.44-.31.94-.61,1.42-.48.8-1.6,1.14-1.92,2.07a11.81,11.81,0,0,0,1.66-1.58,7.3,7.3,0,0,0,1.49-1.83c-.19,0-.3-.18-.61-.07M37,20.9a.76.76,0,0,0,.52-.17c0-.33,0-.61-.35-.56a1.16,1.16,0,0,0-.18.73M20.36,22.69c-.7,2-1.95,3.53-2.63,5.54.51.29,1.52,0,2.37-.1q.39-2.73.53-5.48l-.27,0M34.2,20.17c.68,0,.92-1.22.62-1.5a2.61,2.61,0,0,0-.62,1.5m-7.53-.94c-.62,1.12-2.15,2.66-3.77,2-.39-.15-.52-.76-1-.72-.42.94-.27,2.36-.43,3.43-.1.59,0,1-.09,1.6a4.64,4.64,0,0,0-.08,2.22,8.75,8.75,0,0,0,3.85-1.57,17.14,17.14,0,0,0,6.39-5.77,15.16,15.16,0,0,0-4.82-1.19M35.08,18a.37.37,0,0,0,.1-.52v0l-.27,0c.05.17-.14.64.18.5m-8.41-.19c.6.7,1.71.75,2.62,1a13.22,13.22,0,0,0,3,.59,8.74,8.74,0,0,0,1-2.35c-2.2.22-4.6-.2-6.57.76M16.23,19.35c-.25.1-.44.3-.7.38-.73.21-1.46.07-2.2.25-.25.06-.52.3-.78.38-.59.19-1.29.08-1.76.55,0,1.7,0,3.36.62,4.23,1.79-.77,3.28.49,2.19,2.05a6.11,6.11,0,0,0,2.88.88,14.85,14.85,0,0,0,2.37-4.26c1-1,1.36-2.54,2.1-3.77A11,11,0,0,1,21,18.52c-1.7.37-3.32.27-4.82.83m21.64-4.17c.56,0,.86-1,.43-1.22.1.57-.76.72-.43,1.22M20.09,16.72a2.36,2.36,0,0,1-.62-.6A15.21,15.21,0,0,1,15,13.2c-.09,0-.11,0-.18-.06A11.09,11.09,0,0,0,11,19.67a26.87,26.87,0,0,0,5.16-1c1.94-.4,4.25-.46,5.25-1.45-.29-.37-.92-.27-1.31-.5M8,14.65c.49.14.62-.67.17-.55-.05.19-.21.29-.17.55M36.8,8.55c-.53.13-.42,1.12.44,1,.39-.58-.06-1.1-.44-1m-28.45,5c.56,0,.87-.26.79-.83a.9.9,0,0,0-.79.83m25.32-.34a6.74,6.74,0,0,0-5.26-5.82,33.29,33.29,0,0,1-2.72,4.41c-.32,1.5-1.19,2.51-1.67,3.88a6.4,6.4,0,0,1,2.11,1c2.2-.19,4.88-.61,7.17-.68a4.77,4.77,0,0,0,.35-2.79M23.93,7.5c-.15,1.07-.57,1.86-.7,2.76,0,.31,0,.66,0,1s-.21.55-.27.83,0,.4,0,.62A16.55,16.55,0,0,0,22.44,16c.44,0,.76-.46,1-.78.72-1.11,1.11-2.43,1.75-3.54.41-.73.91-1.44,1.32-2.16a5.48,5.48,0,0,0,1-2.37,10.33,10.33,0,0,0-3.5.29m-3.85.78a3.4,3.4,0,0,0-2.1.86,3,3,0,0,0-.88.85c.2.21.55-.28.53.18-.32.54-1.89,1.32-1.92,2,0,.43.77.86,1.22,1.22A14.5,14.5,0,0,0,21.48,16a9.23,9.23,0,0,0,.43-2.9,7.27,7.27,0,0,0,.53-2.64A13.44,13.44,0,0,0,23,7.2c-1.06.21-2.26.3-2.89,1.07M30.5,7.08a13.08,13.08,0,0,1,1.84,1.31A11.26,11.26,0,0,1,34.09,9.8a7.86,7.86,0,0,1,1.49,4v1.07a16.16,16.16,0,0,0,.08-3c0-.25-.22-.47-.26-.75A12.74,12.74,0,0,0,34.17,7a7,7,0,0,0-.88-1c-.72-.92-1.5-2.27-2.71-2.23A6,6,0,0,0,29,6.53c.29.55,1,.35,1.49.56M21,5.58a6.14,6.14,0,0,0-1.76,1.08c1.4-.39,2.3-.38,3.94-.71a2.36,2.36,0,0,0,.27-1.19,3.9,3.9,0,0,0-1.57.42c-.33,0-.32-.34-.79-.14a.92.92,0,0,0-.08.54m5.17-2.13c-.4.57-1.61.45-1.92,1.1,0,.63,0,.74,0,1.33.42.24.93,0,1.4,0a18.67,18.67,0,0,1,2.45.5,8.34,8.34,0,0,0,1.57-2.82c-.84-.4-2.27-.11-3.5-.07M23.68.12l.44-.07c.27.76,1,1,2.19.63,1.42.52,3.17.66,4.47,1.33.28-.34.69-.73,1-1.14s.64-1.1,1.14-.8c-.19,1.1-1.1,1.6-1.49,2.54C34.15,4,36.68,5.72,38,8.76a20,20,0,0,1,1,6.47c1.16.13,2.39-.78,2.89.17-.4,1.26-1.78.94-3,1.27.19.74-.28,1.46-.35,2.09,0,.34.06.66,0,1-.18.86-.86,1.78-1.14,2.66-.1.35-.05.71-.17,1.09a31.32,31.32,0,0,1-3,4.36c-.38.42-1,.71-1.14,1.32.92,0,1.58-1.41,2.36-1.52-.3,1-1.43,1.37-1.84,2.33.67.78,1.55,2.65,2.8,2.58s2.47-1.44,3.94-1.76a8.08,8.08,0,0,1,2-.23,5.31,5.31,0,0,1,1.32.51c.41.14,1,.11,1.31.51.65,1-.26,2-.95,2.72-1.37.21-2.25.85-3.59,1.08-1.27,1.19-3.26,1.51-4.82,2.52-.55.36-1.14,1.12-1.67,1.23-.86.2-1.63-.43-2.62,0a6.64,6.64,0,0,1-1-2.05c.26-.81.85-1.34,1.13-2.12-.65-.68-1.08-1.63-1.92-2.09-.9.4-1.77,1.09-2.8,1.5-.3.11-.65.12-1,.23s-.57.38-.87.49-.72.06-1.06.16-.71.34-1.05.42c-.67.17-1.48.23-2.28.35a16,16,0,0,1-2.27.35c-.4,0-.74-.26-1.15-.26s-.8.19-1.14.18a6.8,6.8,0,0,1-1.66-.45,17.36,17.36,0,0,1-4.47-2A18.77,18.77,0,0,0,7,38.38,7.11,7.11,0,0,0,9.5,40.1c.49.19,1.16.12,1.49.48s.14.55.26.85.53.35.35.74c-.57,1.14-2,1-3.59,1.26A3.62,3.62,0,0,0,4.86,43c-1.53-.81-3.49-1.11-4.47-2.57,0-1-.54-1.51-.35-2.34a3.42,3.42,0,0,1,3-1.86A27,27,0,0,0,6.34,30.9a10,10,0,0,1-3.16-8.78c0-.36.3-.73.35-1.12s0-.64,0-1,.31-.89.44-1.39c.21-.77.32-1.52.53-2,1-2.4,3.05-4.61,4.9-6.51,2-2.06,3.92-4.37,6.21-5.48a8.17,8.17,0,0,1,3-2A16.25,16.25,0,0,1,20.87,1.6,26,26,0,0,0,23.5.91a1.45,1.45,0,0,1,.17-.73" transform="translate(0 0)" style="fill:#fff"/><path d="M48.24,38.73,48,38.9h.48a.25.25,0,0,0-.21-.17m5.22.22-.26.54c-.59-.17-.68-1-1.14-.8-.54.42-2.24.25-3.61.22.06.14,0,.35.17.47-1.2.11-2.17-1.27-3.35-.77a.84.84,0,0,1,.55,1,.66.66,0,0,1-.09.19c.24.11.42-.09.66-.17-.09-.23-.48-.41-.26-.68.5-.06,1.14.42.72.9.48-.63,2.19-.22,3.1.29.72-.33-.51-1.36.55-.79a.53.53,0,0,1-.17.58c-.13-.16-.11.23-.11.23.6-.48,1-.22,1.65-.28l0-.77c1-.38.82,1.32,1.64.76l-.2-.38.63.1-.05-.3c.27-.17.52.32.56.24.32-.89-.63-.28-1-.62m1.82.18c0-.31-.36-.08-.59-.18-.07.35.38,1,.72.9l-.32-.52c.16.07.15-.12.19-.19M72,39.26V39a.58.58,0,0,1,.72.19,5.85,5.85,0,0,1-.72.07m-1.4.42a1.53,1.53,0,0,1-.29.07c.09-.41-.51-1,.34-.51,0,0,0,.06,0,.09a.2.2,0,0,0-.21.06.53.53,0,0,0,.22,0,.61.61,0,0,1-.08.27m-3.41-.09.1-.05,0,.22-.14-.17m-1-.53a.33.33,0,0,1,0-.22c.42-.05.92.28.84.66a1.15,1.15,0,0,0-.91-.44m7.73.8a1.92,1.92,0,0,0-.44-.46l.56.08L74,39.18c.26-.16.51.33.55.26.32-.89-.63-.28-1-.62l-.22.5a1,1,0,0,0-.29-.11c-.37-.28-.5-.8-.88-.66-.54.43-2.24.25-3.61.22.06.14,0,.35.16.46-1.2.12-2.16-1.27-3.34-.77a1,1,0,0,1,.56.64,2.27,2.27,0,0,1-1.94,0l.47.41c-2.92-.87-6.37-.18-8.9-.49-.39,1,.71.33,1.23,1-.32-.53.66-.18.79-.48l.88.58c0-.47-.29-.42-.46-.87.57-.21.85.71,1.17.8h0c1,.36,1.79-.77,2.35-.15l-.18.39a2.56,2.56,0,0,1,2.23-.3c0,.38.55.63.71.52-.42.09-.2-.38-.56-.45,1,.47,3.15.59,3.64,0,.32.52-.29.42.1.8.22-.27.21-.85.67-.83l.51.33c-.16-.26-.66-.21-.52-.72.41-.28.51.53.77,0,.08.23.22.77.45.87-.14.11-.38.2-.45.35.23.11.51.33.66.21l-.08,0c.66-1.2,1.13.42,2.15-.52-.16-.26-.53-.27-.77-.71h0a.47.47,0,0,0,.55,0,2.62,2.62,0,0,0,.56,0v0a2.15,2.15,0,0,1,.14.26H72c.71.33,1.34.82,2.1.41-.42-.1,0-.31-.12-.54m.44.67-.26.17.31-.05,0-.12ZM74.2,41a.78.78,0,0,0,.58,0c-.12-.15-.42-.1-.58,0m11.66-.14a.43.43,0,0,0-.33-.09,1.49,1.49,0,0,0,.31.2v-.11Zm.48,0a.41.41,0,0,1-.48.09l0,.42.53-.51m12.17.39h-.19a.18.18,0,0,0,.19,0m32.33-1,.3,0-.26-.23,0,.26m-.29-1.42h0Zm-3.75.64a1.13,1.13,0,0,0-.32,0c.09-.11.19-.2.4-.05a.31.31,0,0,0-.08.11m-.5,1.13c0-.08-.07-.15-.1-.22h.09a.21.21,0,0,1,0,.23m-3.39.34c-.53-.06-1.4-.45-1.35-1.17a.87.87,0,0,1-.3.17s0,0,0-.06c-.22.09-.33-.06-.42-.09.5-.38.71-.18,1.1-.16.24.37.42.78.84.71a2.22,2.22,0,0,0-.1.39l.35-.23a.57.57,0,0,1-.14.45m.09-1.68v.12l-.16,0,.17-.09m-8,1.11a2.41,2.41,0,0,1,.21-.5.73.73,0,0,0,0,.36,1,1,0,0,1-.22.13m-1.61.74a1.77,1.77,0,0,1-.67-.26c0-.27.17-.27.36-.31-.45.41.77-.24.31.58m-2-.71c-.28-.19-.1-.32.09-.41l.54.43a1.44,1.44,0,0,0-.62,0m-4.8-.81a.43.43,0,0,0,0-.12.27.27,0,0,1,.11.05s0,0-.06.07m-3.91,1.5a2.38,2.38,0,0,1-.74-.24,4.4,4.4,0,0,1,.87-.15.5.5,0,0,1-.14.39m-1.33-1a.53.53,0,0,1,0-.22.92.92,0,0,1-1,.16l0-.32a1.66,1.66,0,0,0,1.25-.2,3.83,3.83,0,0,1,.33.46,5.17,5.17,0,0,0-.54.11m.79-.66h0m-9,1.81c-1-.19-.85-.83-1.91-.71a1,1,0,0,0,.5-.27.76.76,0,0,0-.25-.22h0a1.12,1.12,0,0,0-.28-.16,1,1,0,0,1-.3-.36.5.5,0,0,0,.55,0c.36.6.85.57,1.51,1-.9.71.65-.18.14.72m-1-1.72a5.82,5.82,0,0,0-.6,0c.24-.17.32-.49.6,0m-2.79.81-.18,0c-.38-.31-.15-.68-.26-.83a.54.54,0,0,0,.1-.16c.08.23.22.77.45.87l-.1.07m-.89-.84a.5.5,0,0,1-.19.24.36.36,0,0,1,0-.32.29.29,0,0,1,.41.06h0a.62.62,0,0,0-.19,0m-1,.35h0m-7-.11c.36-.14.68-.29,1-.18a.83.83,0,0,1-1,.18m-1.69.53c-.38-.09-.62-.78-1.1-.88l0-.05.87.58c0-.46-.29-.42-.45-.87.36-.13.61.2.83.47a1.48,1.48,0,0,0-.19.74M77.46,40c-.31.14-.58-.1-.87-.38a.89.89,0,0,1,.47.31c-.25-.4.25-.29.57-.35.06.21.07.44-.17.42m53.1-1.08c-.12.42-.54.74-.94.26l.54-.29c-.31-.17-.63,0-.94-.14a.74.74,0,0,1,.11.56,6.85,6.85,0,0,0-3.12,0l.11-.37a10.77,10.77,0,0,1-2.66.25.48.48,0,0,0-.33-.07l0,.06c-1.6-.06-3.2-.32-4.54-.46l-.37.79h-.13c-.19-.37.25-.6-.38-.55a.68.68,0,0,1-.35.64,1.2,1.2,0,0,1-.38,0c.06-.26.84-.51,0-.65a5.43,5.43,0,0,1-.13.58.36.36,0,0,1-.14-.11l.11.3c-.26-.68-1,.19-1.22-.65a11.86,11.86,0,0,1-4.71-.08.48.48,0,0,0-.36.51,1.49,1.49,0,0,1-.09-.3c-.49.67-.28.91-1.08,1.12a.84.84,0,0,0,.12-.56,2.1,2.1,0,0,0-.5-.24c0-.07-.12-.09-.29-.08a6.51,6.51,0,0,0-2.41,0c-.55-.46-1.83.64-2-.44.18.64-.91.14-.52.71l-.16-.07a.67.67,0,0,0-.63-.33l0,.15a10.32,10.32,0,0,1-1.35-.15,1.24,1.24,0,0,1-.17.23,1.24,1.24,0,0,1-.38-.14.94.94,0,0,1,.28.21c-.83.6-2.1-1-2.44.08a2.51,2.51,0,0,0-.67,0,.79.79,0,0,0-.72-.35c.07.16.1.36,0,.45a2.07,2.07,0,0,1-.61,0c-.4-.22-.76-.85-1.27-.95-.34.11-.4.49-.55.7a.92.92,0,0,0-.57,0l-.14-.24a.44.44,0,0,0-.15.6.47.47,0,0,0,.14.14l-.09,0-.41-.12a.28.28,0,0,0,0-.2c-.86-1.24-1.36-.35-2.53-.69,0,.11.36.25,0,.49-.39,0-.79-.55-1-.27.15.07.41-.1.39.18a2.16,2.16,0,0,1-.49.16.92.92,0,0,1-.08-.27l-.18.28a1.33,1.33,0,0,1-.57-.22l.07-.15c-.19,0-.26.16-.45.16l.07-.34c-.71.9-1.37-.54-2.06-.29l.18.84c-1.25-1.6-1.78.13-3.3-.66l.47.4-.37-.08a.65.65,0,0,1,0-.13.13.13,0,0,1,0,.12c-2.83-.7-6.09-.11-8.49-.4,0,.06,0,.09,0,.14l0,0a.6.6,0,0,0-.35.35l-.1-.15c.16.07.16-.12.19-.19,0-.31-.35-.06-.58-.17a1,1,0,0,0,.35.78c-.11.2-.25.32-.61.11l-.16-.27c-.64.56.38,1,.7,1.16l0-.31a3.91,3.91,0,0,0,1.8.83c1-1.44,2.15.89,3.39-.15l-.11-1c.61.2,1-.14,1.48-.25a.13.13,0,0,1,.07.06l-.18.39a3.89,3.89,0,0,1,.66-.29.58.58,0,0,0,.14.34,9,9,0,0,0-1.85.29c.32,1.56,2.11-.25,3.07.74.35-.11.2-.84.67-.63.28.72.82.21,1.27.17l-.34-.31c0-.06.06-.12.14-.19a8.25,8.25,0,0,0,.86,0c.68.68,1.67,1.22,2.4.39l.64.86c.53-.52,1.22-.38,1.72-.63l0,.47c.25-.55.58,0,.85.2.07-.16.07-.35.13-.51.74-.14,1.38.72,1.8.45-.56-.63.07-.16-.56-.82.47.4.8-.48,1.16.15l.12,0a.89.89,0,0,0,.51,0,.29.29,0,0,0-.21-.09,1.35,1.35,0,0,0,.24-.48l.07,0c0,.57.71.62.82.92.59-.68,1.17.53,1.9.4-.16-.08-.35-.07-.36-.26.35-.37.36.16.64.14,0,0,0-.07-.06-.16l.31,0-.24-.12c0-.39.41-.47.73-.33.09.42,1.08-.07,1.21.65.08-.46.69-.4,1-.65a1,1,0,0,0,.88.09,3.17,3.17,0,0,0,.48.49c.46-.24.63-.2.86-.66a1,1,0,0,1,.57.3h0c-.17-.18,0,.05,0,.08l-.55.13c1,.36,1.33-.81,2.28,0-.17-.26.31-.23.14-.5L106,41l0,.25.17-.16.05,0s0,0,0-.07l.32-.32a.35.35,0,0,1-.36.1,6.85,6.85,0,0,1-.34-.85,2,2,0,0,1,.33-.08,3.62,3.62,0,0,0,1.1.88v.16a.77.77,0,0,0,0-.15,1.24,1.24,0,0,0,1.21,0,4.07,4.07,0,0,0,.66.33l0-.1.26.36c.53-.52,1.22-.38,1.72-.63l0,.46c.25-.54.58,0,.86.2.07-.15.06-.34.13-.5.74-.14,1.38.72,1.8.45-.56-.64.07-.16-.57-.83.3.26.53,0,.76-.07a.45.45,0,0,1,0,.11l.06-.12c.1,0,.19.05.29.2s.07.14.36.25l.49-.44h0c.21.24.6.33.68.55.58-.67,1.17.53,1.9.4-.17-.08-.35-.07-.36-.26.35-.36.36.17.64.14,0,0,0-.07-.06-.15l.31,0a1,1,0,0,1-.23-.12.33.33,0,0,1,0-.17c.11,0,.22.07.33.12l-.12-.31a.64.64,0,0,1,.47,0c.09.41,1.08-.08,1.22.64.1-.61,1.18-.3,1-1,.58,0,.82.66,1.26,1,.5-.25.65-.18.9-.73.23.11.55.07.56.45l-.55.12c1,.36,1.34-.8,2.28,0-.16-.26.31-.23.14-.5l.51.33a1.17,1.17,0,0,0,0-.26c.36-.28.62.35.74-.3a.36.36,0,0,1-.48-.19.31.31,0,0,1,0-.13.53.53,0,0,1,.53,0,1.18,1.18,0,0,1,.31.42V40.1a.7.7,0,0,0,.25,0c0,.13-.13.26-.23.38a.16.16,0,0,0,0-.1v.12c-.1.13-.13.27.24.44s.75-.09,1-.39a2.88,2.88,0,0,0,.68.34,3.71,3.71,0,0,1,.39-.77,1.3,1.3,0,0,1,.23.18,1.36,1.36,0,0,1,.42-.47s0,0,0,0a1.66,1.66,0,0,0,.32,0l-.3-.1c.37-.31.74-.63.2-1M141,40l-.38-.21.25.42L141,40Zm8.38.34.25.26a.49.49,0,0,0-.25-.26m.89-1.23a.54.54,0,0,1-.5-.23l.52-.26,0,0a.43.43,0,0,1-.05.47m-.69.73a1.21,1.21,0,0,1,.49.28.51.51,0,0,1,.09-.16.86.86,0,0,0,.14.13.5.5,0,0,1-.68-.16l0-.09m-3,.53a.45.45,0,0,1,.39,0,.64.64,0,0,1,0,.2.85.85,0,0,1-.42-.24m-.06-.06a1,1,0,0,0-.2-.15.5.5,0,0,0,.17,0,.19.19,0,0,1,0,.16m-4.12-.93h.09a.59.59,0,0,0,0,.08.52.52,0,0,1-.13-.06m-4.8,0a.8.8,0,0,0-.06-.3l.1-.09a3,3,0,0,0,.32.19.57.57,0,0,1-.36.2m-2.78.92a.31.31,0,0,1-.19-.29l-.23.11c0-.28-.67-.19-.46-.57a5.26,5.26,0,0,1,1.33.58,3,3,0,0,1-.45.18m-3-1.54v0l0,0h0m18.43-.22h0c-.26-.06-.53.07-.8-.09.27.35,0,.86.11,1.16-.14-.38-.25-.81-.63-.82.31.17.1.35,0,.5-1-1-2.63-.75-3.78-.8l.06.35-.53,0c-.05-.21-.2-.41-.65-.51-.66.13-1.46-.21-2,.39a.2.2,0,0,1,.21,0c-.56-.05-1.11-.12-1.65-.18a.75.75,0,0,1-.09-.3,1.45,1.45,0,0,0-.17.26l-.93-.12h.44a24.58,24.58,0,0,0-5.75.08l.45.41h-.93c-.17-.2-.27-.41.19-.58-.28-.06-.49-.37-.73-.11a.7.7,0,0,0,0,.66l-.19,0a.7.7,0,0,0-.12-.72c-1,.46-1.32.06-2.17,0a.78.78,0,0,1,.07.6,1,1,0,0,1,.47,0c-.36.37.27,1-.37,1.06a.72.72,0,0,0,.9-.22L133,40.82c-.25-.68.65-.18.56-.78.35.16.57-.19.73.19l0,0h.05l0,.15.06-.12.42.09c-.2.08-.24.17.23.36l.49-.44c.93.24,2.19,0,3.3.47l-.13-.34.14-.1.2.69c1.14-.65,1,.65,2-.07-.47-.56-.57-.22-1.18-.36.06-.1.09-.18.13-.26l.41.13-.06-.68c.46-.17,1.06.77,1.16,0-.21.08-.33-.06-.42-.09.5-.38.71-.18,1.1-.16a.59.59,0,0,1,.2.33.34.34,0,0,0,.05-.26c.27.05.47.06.49.36l-.39.17a.55.55,0,0,0,.45.28.65.65,0,0,0,0,.21c.18-.11.35-.22.51-.34s.22,0,.27.26l0-.17c.75-.28,1,.27,1.77.19a1.72,1.72,0,0,1,.16-.45,1.5,1.5,0,0,0,.47.19l-.11,0c.15.08.41.33.13.47a1.26,1.26,0,0,0,1.46-.21c0,.09.06.18.29.29.55.21.82-.2,1.1-.54a4.05,4.05,0,0,1,.5.12l-.13-.14a.94.94,0,0,1,1,.42c.54-.1-.18-.39.17-.5l.48.36c.33-.4-.23-.12.1-.53l.05,0v0h0c.34.27.64.13,1.2.43,0-.31-.13-.65.11-.71-.58,0-.22-.51-.24-.82a4.56,4.56,0,0,1-1.36-.27s0,0-.05,0a0,0,0,0,1,0,0,3.41,3.41,0,0,0-.54-.1M153.85,41l.62.13-.83-.26Zm9.37-.57c-.24.27-.12.42.18.39-.11-.15,0-.3-.18-.39m-4.28.12a3.86,3.86,0,0,0-.6.54c.48-.15.53-.31.6-.54m-5.85.22,0-.08c-.07,0-.09,0,0,.08m2.49.48a2.85,2.85,0,0,0-.23-.26.26.26,0,0,0,0,.21.34.34,0,0,1,.26,0M173.51,40a.23.23,0,0,0,.24,0c-.11-.06-.19-.07-.24,0M177,38.76c-.26-.25-.35-.09-.43.13,0-.11.14-.18.43-.13m.17,1.47.09-.34,0-.12-.06.47Zm8.07-1.94-.22-.13.18.39Zm-.88,0-.24,0c.06.08.13.15.24,0m-.44-.11.2.07c-.08-.1-.14-.22-.2-.07m2,0-.53-.29.51.86c0-.07-.41-.51,0-.57m2.58-.55.13.46.39-.17Zm-119.94,1-.26.16h.47a.24.24,0,0,0-.21-.16m50.24,2.52-.19,0a.25.25,0,0,0,.19,0m32-2.4h0m10,0c0-.19-.14-.27-.13-.47-.28.34-.34.6.13.47m.29,1.43.13-.22-.38-.21Zm8.5.13.25.25a.39.39,0,0,0-.25-.25m4.4.58.62.13-.84-.26Zm9.38-.56c-.25.26-.14.42.18.39-.11-.15,0-.3-.18-.39m-5.79-1.48.14,0,.1,0Zm-4.35,1.82,0-.08c-.06,0-.1,0,0,.08m2.49.48a2.85,2.85,0,0,0-.23-.26.37.37,0,0,0,0,.21.37.37,0,0,1,.27,0m15.59-1.46c-.12-.06-.14-.31-.12-.54a.78.78,0,0,1,.89,0c-.35.18-.83-.1-.77.56m-1.76-1.07a.23.23,0,0,1,0-.14c.14-.14.34-.06.51,0a.75.75,0,0,1,0,.16,2.39,2.39,0,0,0-.59,0m-1.8.11a.9.9,0,0,1-.4-.37c.05,0,.09,0,.15,0a2.29,2.29,0,0,0,.1.23c.19.08.31,0,.36-.1l.31.2-.51.06m-9.11,1a.37.37,0,0,1,0-.11l.07.18Zm-3.69.73s0,0,0,0,0,0,0,0H175m-5.87-1.19-.17-.14a.42.42,0,0,0,.27,0,1,1,0,0,1-.1.17M157.74,39l0-.07.14,0h-.11M156,39a.65.65,0,0,1,.6.07A3.79,3.79,0,0,1,156,39m36.9-.13.18,0c-.18-.24,0-.72-.4-.83,0,.36-.19.77-.66.7-.26,0-.13-.3-.37-.35a1,1,0,0,1-.66.32h0c-.13-.1-.05-.34,0-.56-.31-.5-.9-.15-1.16.1a1.4,1.4,0,0,1-.68-1.11,6.24,6.24,0,0,0-1-.23c0,.13-.12.08-.11.24.21.19.4,0,.63,0s.08.26.2.42.18,0,.19,0c.22.32.23.76.43,1.05a.84.84,0,0,0-.44.28c.19,0,.34.09.5,0,.1.54-.47.13-.6.55l-.4-.76.05,0c.1-.54-.74-1-1.11-1.2-.82.78-.68.7-.75,1.3h-.17c0-.18-.07-.35-.11-.51-.23.11-.06.31,0,.51l-1.37,0c-.21-.22-.28-.11-.38,0h-.71a.5.5,0,0,1,0-.62l0-.05c-.28-.14-.51-.32-.67,0,.13.12.3.41.51.67h-1.29a.8.8,0,0,1,.47-.15c-.11-.67-1.05.3-1.17-.55a2.79,2.79,0,0,0-.39.72l-.5,0v0l0,0a9.06,9.06,0,0,0-.91.07,1.57,1.57,0,0,0-.92-.26s0,0,0,.07a2.75,2.75,0,0,0-1.21,0,2.38,2.38,0,0,1-1.21.13,8.48,8.48,0,0,1-1.73-.38.49.49,0,0,0-.06.29,1.9,1.9,0,0,0-.46.15c-.38-.11-.65-.38-1.11-.35-.13.41.43.63-.11.91a.38.38,0,0,0,0-.15c-.77.16-.07-.92-.83-.65a.35.35,0,0,1,0,.11c-.45,0-1.22-.32-1.81-.37l.15.08a.47.47,0,0,1,0,.31,4.57,4.57,0,0,0-1.38-.09l-.12,0,.07.07a.73.73,0,0,0-.34.2c-1-.74-2.45-.52-3.51-.56l.11.58h-.53c0-.28-.1-.57-.69-.7-.66.13-1.46-.21-2,.39.23-.07.29.11.36.32H162a.77.77,0,0,0-.53-.12.55.55,0,0,0,.24.12c-.62,0-1.22,0-1.82.09L160,39c-.3-.16-.69-.17-.79-.52l.82,0a25.9,25.9,0,0,0-5.77.08l.37.33a.59.59,0,0,0,0,.37.33.33,0,0,1-.14,0h-.19a.9.9,0,0,1-.32-.09c-.2-.24-.58-.54,0-.77-.27,0-.49-.36-.72-.11a.7.7,0,0,0,0,.63l-.17,0a.67.67,0,0,0-.14-.7c-1,.45-1.31.06-2.16,0a.76.76,0,0,1,.06.61c.47-.12,1,.46,1.19,0,.49.17.45,1.13.92,1-.12-.27,0-.54.11-.83-.07.39.43.59-.11.88.26.23.81.14.86.57-.41-.06-.61.11-.66.42.28,0,1.3,0,.88-.8a14.65,14.65,0,0,1,1.37,1.1c.11-.22.45-.27.62-.4-.21-.18-.68-.2-.94-.36h0s0,0-.06,0-.16-.23,0-.45a2.06,2.06,0,0,1,.72.44c.08-.46.54-.35.59-.65a2.82,2.82,0,0,1,.58-.1s0,0,0,0c-.39.28-.11.34.07.43v0l0,0c.12.06.17.14-.13.33a5,5,0,0,0,.65-.23c.28.23.57.61,1,.48,0-.29,0-.82.25-.87-.13.3-.45.57-.13.81.41-.23-.1-.54.24-.69a.54.54,0,0,0,.15.3l.07.25a1.48,1.48,0,0,0-.12.29l.18-.12.12.43c1.15-.65,1,.65,2-.08-.48-.55-.57-.21-1.17-.35a.67.67,0,0,0,.07-.74c.27-.19.54-.39.8-.6.17.39.6.52.23,1,.58,0,.48-.51,1-.53l.1.34c.34-.1.42-.06.67-.32a.65.65,0,0,0,0,.24l-.23.1a.51.51,0,0,0,.58.26,2,2,0,0,0,.55,0,.36.36,0,0,1,0,.11l0-.11c.25,0,.44,0,.37.18a1.75,1.75,0,0,1,.33-.28,2.55,2.55,0,0,0,1.06.22,1,1,0,0,1,.32-.66,4.14,4.14,0,0,1,.93,0c.11.25.35.53.32.8-.46-.06-.58-.71-1.06-.38.14.08.4.32.13.46,1.18.55,1.5-.55,2.39-.75l-.06.46.33-.59h0c-.07.55.35.38.66.53l-.12-.14a.94.94,0,0,1,.95.42c.4-.08.13-.25.08-.38l.38.1.2.15.07-.09a4.16,4.16,0,0,0,1.72.12c0-.4-.19-.22-.41-.22a1.21,1.21,0,0,1,0-.38c.24-.08.54-.09.61-.31.22.19.6.18.77.39l-.09.1.13.07c-.39,0-.57.12-.61.43.18,0,.69,0,.89-.27a1.4,1.4,0,0,0,1,.26c.13.11.25.21.34.3.1-.23.45-.26.61-.41a1.46,1.46,0,0,0-.5-.2s.07,0,.09-.09l-.21.06c-.34-.09-.61-.22-.39-.62a1.48,1.48,0,0,0,.66,0c.33.29.7.59.92,0a.54.54,0,0,0-.05-.28,1.72,1.72,0,0,1,.6-.05l-.17.49c.25-.2.46,0,.7.19.14.41.3.79.74.83h.14c0,.05-.11.1-.15.15a1.17,1.17,0,0,0,.38-.17c.63-.14,1.17-.73,1.5-.58-.16-.08-.37-.15-.36-.44l.26-.2c.13.12.27.31.39.18l.12-.57.3-.23a2.2,2.2,0,0,0,.21.32.53.53,0,0,0,.08.27l.07,0a.49.49,0,0,1-.14.38.6.6,0,0,0,.51-.24l.2.07a1.22,1.22,0,0,1,0-.27.52.52,0,0,1,.29-.09l.1.35c.36-.1.44-.06.68-.31-.12,1.1,1.48.32,1.31.81a2.86,2.86,0,0,1,2.37-.7l.36.09v0a3.2,3.2,0,0,1,.61.15l-.21-.51c1.92.26,4.27,1.35,5.52,1,0-.57-.42.06-.67-.37.13-.42,1-.16.87-.69-.36.07-.4-.12-.42-.32m.94-.27-.21.37.55-.09c0-.19-.27-.24-.34-.28m-.09,1.22a.21.21,0,0,0,.24,0c-.11-.05-.18-.07-.24,0m3.62.22.09-.34,0-.12-.06.46m6.71,0c-.11.16.17.08.11.18.16,0,0-.17-.11-.18M222.22,44a1.25,1.25,0,0,0-.22.41c.1,0,0,.14.17.14s.28-.41.25-.55a.23.23,0,0,1-.2,0m-.94,2c.08,0,.11,0,.21,0s0-.13,0-.2c-.15-.07-.19.06-.21.2m-7.84,2.58c-.13.27.22.44.16.76-.06-.23.57-.44.6-.51.11-.32-.55-.72-.76-.26m5-.7c.11,0,.05-.16.05-.19s-.05.16-.05.19m-3.83,1.37a.42.42,0,0,1,.16,0,2.1,2.1,0,0,1,.06-.24c-.12,0-.19.1-.22.25m4.13-1.75s0,0-.06,0,.1,0,.19.05c.12-.21,0-.3,0-.42s0,.22-.09.33M187.31,36.26c-.22-.06-.14.12-.12.23s.07-.17.12-.23m9.22,1.5c0-.22-.09-.33-.07-.53-.12,0-.27-.09-.35,0-.06.25.09.38.1.6a1.13,1.13,0,0,1,.32,0m.81-.1a1.14,1.14,0,0,0-.47.19c0,.21.17.28.26.43a.35.35,0,0,0,.36-.32.36.36,0,0,0-.15-.3m-13.22-.85c.07-.13-.07-.13,0-.22-.16-.05-.23,0-.4-.05,0,.15.24.21.44.27m41.22-4.51c.28-.11.71-.49.18-.68-.08.36-.34.44-.6.51,0,.21,0,.36,0,.57.17-.11.45-.18.42-.41m-27.89,7.26c0,.12,0,.27.18.31a1,1,0,0,0,.16-.38c-.19-.09-.21.07-.34.07m-11.83-1.83c0,.11.06.25.25.28,0-.1,0-.19.07-.29a.86.86,0,0,0-.32,0m.14-1.87a1.39,1.39,0,0,0-.87.54c.46.11.62-.3.87-.54m38.57,4.76c.3.08.51-.38.45-.34.24,0,.63,0,.73.35-.2.28-.8.26-1.18,0m-.43-3.26c.12-.08.2-.22.4-.15,0,.23.26.52,0,.78a.7.7,0,0,1-.4-.63m-6.54,9.08c-.27.23-.1.73-.36,1a.89.89,0,0,1-.36,0,2.06,2.06,0,0,1,0-.82c.34.05.71-.11.55-.53a1.38,1.38,0,0,1,.52-.17c.15-.1.23-.32.4-.36,0,.15-.07.29-.11.43a.56.56,0,0,0,.62.22c0,.14,0,.23,0,.36-.43-.34-.66.22-1.28-.07m-.4,2.69c0-.09,0-.26.14-.18,0,.09-.07.16-.14.18M211.67,40c-.19,0-.33-.11-.35-.25a.4.4,0,0,1,.53-.06c0,.18-.15.15-.19.31m-5-.73a.23.23,0,0,1-.14,0,.51.51,0,0,1,.17-.3c0,.08,0,.15-.06.25h0Zm-6.54-.47-.1-.06c0-.1,0-.17.21-.11a.19.19,0,0,1-.11.16m-.47.45h0a.48.48,0,0,1,.16-.26l0,.06c0,.1-.09.19-.18.21m-3.1-.1-.09-.07h.13s0,0,0,.08m31.83-3.88a.86.86,0,0,1-.65.29.72.72,0,0,1,.08-.65,2,2,0,0,0-.56-.2,1.21,1.21,0,0,1-.07-1.15c.22-.4.51-.17.81-.3,0-.32-.67-.24-.69-.54-.13.19-.43.06-.47.4a.77.77,0,0,0-.63,0,.59.59,0,0,0,.45.48,1.15,1.15,0,0,0-.53.85c-.15-.2.12-.68-.19-.88-.15.23-.46.19-.55.53-.56,0-.14-.67-.26-1a2.05,2.05,0,0,0-.67-.64c0-.28.18-.53.26-.55s-.13-.17-.14-.29-.14.16-.32.07.09-.48.17-.62a.78.78,0,0,1-.37-.72c-.13,0-.24-.07-.28,0a.55.55,0,0,1-.1-.55,1.69,1.69,0,0,1-.5-.08c-.15.1-.18.35-.29.5-.4-.14.07-.58-.17-.77.17-.13.45,0,.55-.27s-.28-.42-.28-.7c-.58-.23-1.16-.21-1.47-.55a10.19,10.19,0,0,1-1.9.18c-.06.1-.17.26-.1.39.26.09.28-.23.58-.06,0,.3-.42.26-.51.17-.25.28,0,.62-.09.92.24-.06.39-.28.62-.36.43.28.39.83.9,1.07a4.11,4.11,0,0,1,.43.73,2.82,2.82,0,0,1,.38.73c0,.21-.08.45,0,.67s.26.28.35.45.08.43.27.54c-.06.21,0,.36,0,.57.41.31.79.66.63,1.3.19.09.35.2.29.44-.23.37-.76-.13-1,.15-.1.2,0,.24,0,.38a8.27,8.27,0,0,1-1.86,0c-.12.34-.41.41-.49.85-.29-.08-.78.09-.88-.13-.34.18-1,.51-1.35,0,.11.11,0,.34,0,.56a.33.33,0,0,1-.46,0,1.41,1.41,0,0,0-.46.34c-.44-.15-.74-.07-1.19-.21-.22,0-.26.16-.44.14-.4,0-.66-.56-1.17-.46a.93.93,0,0,0-.33.43c-.23-.26-.62-.42-.8-.72-.63-.23-.93.13-1.25.44a3.36,3.36,0,0,1-.88-.18c-.33.16-.82.08-1.12.33a1.19,1.19,0,0,0-.7,0l-.32-.18.08.25-.44.13a3.72,3.72,0,0,0-.75-.49l-.14.13a.22.22,0,0,0,0-.14.65.65,0,0,0-.52.59c-.29.1-.58.18-.8-.11a.83.83,0,0,1-.21.06l-.29-.16.13.21a1.8,1.8,0,0,1-.52,0c-.17-.14-.06-.45-.25-.59-.37-.09-.55.1-.86.09a.7.7,0,0,1-.32.48.25.25,0,0,0-.31.15l0,0a1.29,1.29,0,0,0-.16.17A2.42,2.42,0,0,0,202.2,38a1.06,1.06,0,0,0-.17.2.48.48,0,0,1-.07-.18,3.14,3.14,0,0,0-.28.46.74.74,0,0,1-.33-.64,1.27,1.27,0,0,1-.8.25c-.05.17-.06.4-.17.48-.32-.24-.65-.68-1.1-.71-.08.22.16.26.08.49a1.08,1.08,0,0,1-.75.26c-.15,0-.07-.2-.12-.29-.39,0-.76.33-1.2,0a.92.92,0,0,0-.27.16c-.1,0-.16,0-.21.12h0c-.12-.22-.44-.32-.71-.45-.12,0-.05-.19,0-.31-.16-.08-.22,0-.4-.06,0,.26.25.4.3.65s-.12.07-.15.17c-.4-.22-1.1-.55-1.24,0,0,0,.08,0,.11.08a1.58,1.58,0,0,0-.78.64h0c0,.19,0,.27.1.38h.06a.69.69,0,0,1-.11.13c.44.21,1.3,1,2,.11-.43.06-.44.25-.74.28a.59.59,0,0,0-.07-.71l.23-.12a.07.07,0,0,0,0-.1,1.56,1.56,0,0,0-.15-.06l.25-.13a.54.54,0,0,0,.27.18l.14-.06c.34.26.71.68,1,.37a.29.29,0,0,0,0,.09c-.19.27-.48,0-.82-.06-.08.22,0,.32,0,.47.5-.2,1.08-.28,1.37-.88a1.05,1.05,0,0,1,.35-.08c.25.56.3,1.4,1,1.46a1.85,1.85,0,0,0,1.12-.34l.12.06a.6.6,0,0,0,.14-.21.66.66,0,0,1,.49-.11.66.66,0,0,1-.33-.24.67.67,0,0,1,.29-.35c.11.12.23.25.34.13l0-.11a1.05,1.05,0,0,1,.35.86c.23-.1.29-.49.59-.47a.91.91,0,0,0,1,.17c.09-.28-.24-.42,0-.6a1.08,1.08,0,0,1,.11.18c.18,0,.4,0,.47-.24a3.94,3.94,0,0,0,.88.23c.1,0,.16-.07.28-.08.3,0,.68.1.86.07s.46-.35.71-.38.27.33.56.41c-.09.2,0,.3-.08.5a2.16,2.16,0,0,0,1.47-.45c.16.09.08.31.14.45.25.07.34-.16.6-.1A4.3,4.3,0,0,1,209,41.5a.67.67,0,0,0,.44-.51c.15-.17.48,0,.76,0,.11-.28.64-.15.59-.47a2.46,2.46,0,0,0,.8-.46c.18.1.19.3.48.34a1.28,1.28,0,0,1,.54-.85c.14.06,0,.28.18.31a.38.38,0,0,1,.38-.38.39.39,0,0,1,.37.27c-.13.22-.4.2-.63.25.22.22.7.3.82.58.24-.07.3-.49.3-.75.29-.09.23.33.08.49.44.07.68-.19.84-.61.39.3.63.07,1.1.13.11,0,0,.16.1.19,0,.35-.48,0-.62.2s.47.24.46,0c.16.1.38.17.56.26.25-.18.48-.38.72-.58.19.13.31.31.54.14.12.21,0,.33,0,.57.5-.1.77-.63,1.28-.38,0-.17.21-.1.31-.17s.12.21.24.27c-.05.2-.24.15-.26.4.17.07.22.2.46.23.24-.18.57-.19.75-.47.22.15.17.44.42.58A4.68,4.68,0,0,1,219.2,43c0,.13-.07.26-.1.39a.7.7,0,0,1-.39.31c-.51,1.1-1.45,1.44-2,2.41a.86.86,0,0,1,0,.32,3.36,3.36,0,0,1-.45.14c-.41.21-.52.68-.8,1s-.65.48-.75.89c.26,0,.34-.25.69-.08a1.12,1.12,0,0,0,.1-.39A1.24,1.24,0,0,1,216,48c0,.6.19,1.06.13,1.69a6.41,6.41,0,0,0,.39-.52c.05.14.23.19.27.34s-.23.23-.32.43c.09,0,.09.08.18.1.27-.08.39-.42.58-.63a2.93,2.93,0,0,0,1.19-.61c0-.27-.24-.36-.32-.56s.11-.38.27-.4c-.1-.21-.42-.3-.3-.64.22-.13.3.21.48.13s.12-.41.39-.47.21.33.51.4c.07-.15.1-.38.25-.35,0-.56-.95-.48-.83-.94.33,0,.37.56.83.37.23.05.05.33.25.38.09-.21.32-.17.34-.48-.18-.15-.45-.26-.55-.46a.38.38,0,0,1,.11-.23.44.44,0,0,1,.27.17c.09,0,0-.39.2-.4.12.17.4.25.39.51.24,0,.35-.28.48-.49a.51.51,0,0,0-.68-.25l0,0a1.22,1.22,0,0,0,.28-.86c.23-.12.6,0,.71-.34.22,0,.4.07.47,0,0-.33-.22,0-.4-.05a4,4,0,0,0,.29-.91c.38,0,.24.36.62.37a4.27,4.27,0,0,0,.36-1c.34,0,.48-.36.71-.54.2.07.21.26.49.29,0-.12.06-.23.16-.22,0-.17-.38-.06-.45-.27a1.3,1.3,0,0,1,.34-.28c.18,0,.13.2.3.24s.34,0,.38-.26c.32,0,.53-.17.93,0,.22-.41.42-.84.85-.86.1-.6.58-.57.78-1,.06-.26-.16-.35-.1-.6s.41-.23.54-.48c-.48-.31-.64-1.57,0-1.87.29,0,.24.24.43.32.09-.19,0-.26,0-.41s-.12,0-.22,0c0-.28.19-.29.24-.51.33,0,.36.29.5.24a1.06,1.06,0,0,1,.21-.77c-.22,0-.27.23-.54.11m-39.05,6.43a.7.7,0,0,1,.19.06.39.39,0,0,0,0-.26c-.16-.06-.18.07-.21.21m38.44-2.19c-.46.38-.13,1.06.15,1.38.29-.41.37-1.18-.15-1.38m.55-7.35c.19,0,.25-.3.22-.46s.06-.08.13-.07c.08-.16-.1-.31-.15-.45s.05-.5-.2-.63c-.13.12-.16.43-.4.36s-.07-.21-.12-.3c-.1.07-.26.05-.31.18.27.1.38.3.67.39.06.32-.07.75.16,1M227.15,30c-.34,0-.28.47-.16.63a.44.44,0,0,0,.17-.6v0M183.49,37c-.14.27.11.32.06.54a4.06,4.06,0,0,1-.46.55c.3.17,1-.9.4-1.08m-1,4.29c.06,0,.06-.11.1-.18s-.07.11-.1.18m45.91-3.47c-.07.16-.14.32-.3.34-.05.18.15.21.28.28.22-.17.31-.47,0-.63m.3-.33a.34.34,0,0,0-.4-.26c-.07.14,0,.19,0,.3a.61.61,0,0,0,.42,0m-.44,2.26c.3-.08.45-.39.57-.78-.05,0-.19,0-.18-.07-.22,0-.36.52-.39.85M226,32.57c-.38,0-.18.43-.07.65.15-.18.3-.52.07-.65m2.93.67c-.32.41.26.65-.15.94-.16-.18,0-.57-.18-.72a1.65,1.65,0,0,0-.94.63c.61.23.79.9,1.33,1,.28-.23,0-.35.14-.68,0-.17.15-.07.19-.16.14-.51.34-1.2-.4-1" transform="translate(0 0)" style="fill:#fff"/></svg>