<svg xmlns="http://www.w3.org/2000/svg" viewBox="0 0 174.64 16.12"><path d="M0,.21.56,0C3,2.31,5.41,4.54,7.81,6.81,10.16,4.5,12.63,2.3,15,0l.51.23c0,4.89,0,9.77,0,14.67,0,.41.1.92-.28,1.22-.85,0-1.7,0-2.56,0l-.28-.39c0-3.09,0-6.19,0-9.29-1.55,1.42-3.05,2.9-4.63,4.28L3.12,6.4c0,3.14,0,6.29,0,9.43l-.3.28H.27L0,15.74C0,10.56,0,5.39,0,.21Z" style="fill:#fdfeff"/><path d="M51.45.51a8.75,8.75,0,0,1,6.8,1.84,7.72,7.72,0,0,1,1.91,9.21,7.86,7.86,0,0,1-5.72,4.24A8.81,8.81,0,0,1,48.73,15a7.58,7.58,0,0,1-3.94-5.28,7.75,7.75,0,0,1,1.14-5.8A8,8,0,0,1,51.45.51m.2,2.74a5.13,5.13,0,0,0-3.94,4.44,5.2,5.2,0,0,0,5,5.59A5.1,5.1,0,0,0,57.84,7.7,5,5,0,0,0,51.65,3.25Z" style="fill:#fdfeff"/><path d="M101.81.56A10.31,10.31,0,0,1,109.17,2c-.34.9-.81,1.73-1.17,2.62a10.47,10.47,0,0,0-4.43-1.5,2.62,2.62,0,0,0-2.19.74,1.43,1.43,0,0,0,.48,1.91c2,1.25,4.78,1.16,6.52,3a4.22,4.22,0,0,1,.75,4,4.56,4.56,0,0,1-3.3,2.91A9.76,9.76,0,0,1,97,13.48c.38-.83.83-1.64,1.19-2.49a13.27,13.27,0,0,0,3,1.75,5.19,5.19,0,0,0,4.14.07,1.45,1.45,0,0,0,.37-2.21,5,5,0,0,0-2.31-1.15,11,11,0,0,1-4.35-1.86,4,4,0,0,1-.86-4.35A4.75,4.75,0,0,1,101.81.56Z" style="fill:#fdfeff"/><path d="M120.72,1.86a9.16,9.16,0,0,1,10.87.78L129.9,4.83a6.57,6.57,0,0,0-4.28-1.72,5.07,5.07,0,0,0-4.68,7.38,5.27,5.27,0,0,0,5.67,2.68,8.07,8.07,0,0,0,2.22-.84c0-.94,0-1.88,0-2.81h-2.25V7.17h4.69c0,2.31,0,4.62,0,6.93a10.15,10.15,0,0,1-8.19,1.56,7.76,7.76,0,0,1-5.57-9.15A7.42,7.42,0,0,1,120.72,1.86Z" style="fill:#fdfeff"/><path d="M140.42.51a8.9,8.9,0,0,1,5.54,1,7.5,7.5,0,0,1,3.7,5,7.66,7.66,0,0,1-1.1,6,8,8,0,0,1-6.11,3.46,8.56,8.56,0,0,1-5.14-1.14,7.53,7.53,0,0,1-3.67-5.49A7.65,7.65,0,0,1,135,3.6,8.11,8.11,0,0,1,140.42.51m.21,2.73a5.09,5.09,0,0,0-4,4.88,5.16,5.16,0,0,0,3.92,5,5,5,0,0,0,5.32-2,5.15,5.15,0,0,0,.57-4.85A5.08,5.08,0,0,0,140.63,3.24Z" style="fill:#fdfeff"/><path d="M19.6.48H30.77V3H19.6C19.59,2.17,19.6,1.33,19.6.48Z" style="fill:#fdfeff"/><path d="M32.28.48c4.15,0,8.3,0,12.45,0,0,.9,0,1.81,0,2.72-1.58,0-3.16,0-4.74,0,0,4.2,0,8.4,0,12.61H37c0-4.19,0-8.39,0-12.59-1.56,0-3.12,0-4.69,0Z" style="fill:#fdfeff"/><path d="M63.4,15.81q0-7.67,0-15.32h3V13.1h6.57c0,.9,0,1.81,0,2.71Z" style="fill:#fdfeff"/><path d="M75.2,15.81c0-5.11,0-10.22,0-15.33,1,0,2,0,3,0,0,5.1,0,10.21,0,15.31Z" style="fill:#fdfeff"/><path d="M81.48.5h3c0,3,0,6,0,9a3.68,3.68,0,0,0,1.79,3.31,4.22,4.22,0,0,0,4.66-.45A3.7,3.7,0,0,0,92,9.65V.5c1,0,2,0,3,0V9.27a6.9,6.9,0,0,1-1,4,5.94,5.94,0,0,1-4.23,2.6,7.63,7.63,0,0,1-6.43-1.64,6.74,6.74,0,0,1-1.86-4.92Z" style="fill:#fdfeff"/><path d="M152.31.49c1,0,2,0,3,0V13.1h6.58v2.72H152.3C152.31,10.7,152.3,5.6,152.31.49Z" style="fill:#fdfeff"/><path d="M164.07.49c3.52,0,7.05,0,10.57,0,0,.88,0,1.75,0,2.63-2.53,0-5.07,0-7.6,0,0,1.36,0,2.71,0,4.06,2.3,0,4.6,0,6.9,0,0,.87,0,1.74,0,2.61H167q0,3,0,6h-3Q164.06,8.15,164.07.49Z" style="fill:#fdfeff"/><path d="M19.6,6.79H30.86V9.51H22.58c0,1.23,0,2.46,0,3.68,2.82,0,5.65,0,8.47,0,0,.87,0,1.75,0,2.61H19.6C19.6,12.81,19.59,9.8,19.6,6.79Z" style="fill:#fdfeff"/></svg>