<svg xmlns="http://www.w3.org/2000/svg" viewBox="0 0 130.83 38.43"><path d="M17.69,6.48l-2.41,9.63.72,0a2.81,2.81,0,0,0,2.05-.67,6.09,6.09,0,0,0,1.22-2.77l.78-3.11c.32-1.29.33-2.14,0-2.53S19,6.48,17.69,6.48ZM9.46,0h9.92a21.55,21.55,0,0,1,6,.63,5,5,0,0,1,2.8,1.83A5,5,0,0,1,29,5.34,27.44,27.44,0,0,1,28,10.6l-.82,3.29a16.89,16.89,0,0,1-2.07,5.29,7.32,7.32,0,0,1-3.39,2.55,14.77,14.77,0,0,1-5.45.89H13.66L9.85,37.87H0Z" style="fill:#fff;fill-rule:evenodd"/><path d="M41,6.83l-1.39,4.08q3.15-4.38,7.12-4.64L44,17.19a9.21,9.21,0,0,0-4,.7,4.14,4.14,0,0,0-2,2,38.72,38.72,0,0,0-1.72,5.76L33.21,37.87H23.76l7.76-31H41" style="fill:#fff;fill-rule:evenodd"/><path d="M58.45,15.39a10.43,10.43,0,0,0,.5-3c-.07-.41-.39-.62-1-.62a1.46,1.46,0,0,0-1.27.62,11,11,0,0,0-1,3l-3.5,14a9.17,9.17,0,0,0-.43,2.86c.07.45.38.67.93.67A1.42,1.42,0,0,0,54,32.32a9.32,9.32,0,0,0,.93-2.62Zm8.87,2.34-1.9,7.6a36.7,36.7,0,0,1-2,6.14,11.91,11.91,0,0,1-2.71,3.65,11.37,11.37,0,0,1-4.17,2.5,15.88,15.88,0,0,1-5.17.81,16.08,16.08,0,0,1-5.14-.69,5.22,5.22,0,0,1-2.86-2.08,6.42,6.42,0,0,1-.87-3.37,25.34,25.34,0,0,1,1-5.93l2-7.95a23.57,23.57,0,0,1,2.62-6.76,11.18,11.18,0,0,1,4.35-3.91,14,14,0,0,1,6.59-1.47,12.47,12.47,0,0,1,5.22.94,6.24,6.24,0,0,1,2.91,2.47,6.87,6.87,0,0,1,.91,3.14A20.09,20.09,0,0,1,67.32,17.73Z" style="fill:#fff;fill-rule:evenodd"/><path d="M90,16.75H81.6L82,15.06a8.88,8.88,0,0,0,.43-2.72c-.07-.38-.43-.58-1.08-.58a1.83,1.83,0,0,0-1.33.53,3.4,3.4,0,0,0-.79,1.58A8,8,0,0,0,78.93,16a2.38,2.38,0,0,0,.82,1.47,18.91,18.91,0,0,0,3.51,2.31q3.61,2,4.45,3.79c.56,1.18.56,2.91,0,5.17a16.15,16.15,0,0,1-2.41,5.72,9.44,9.44,0,0,1-4,3,15.44,15.44,0,0,1-5.82,1,13.45,13.45,0,0,1-5.88-1.12,4.74,4.74,0,0,1-2.76-3.05,13,13,0,0,1,.49-5.8L67.67,27h8.38l-.49,2a10.25,10.25,0,0,0-.5,3.25c.09.5.44.75,1.06.75a2.13,2.13,0,0,0,1.53-.5,4.69,4.69,0,0,0,.93-2.12c.37-1.48.43-2.41.18-2.78a30.22,30.22,0,0,0-4.66-3.32q-3.59-2.34-4-4.25a9.73,9.73,0,0,1,.22-4.52A14.48,14.48,0,0,1,72.65,10a9,9,0,0,1,4-2.72,16.23,16.23,0,0,1,5.7-1,13.84,13.84,0,0,1,5,.78,5.75,5.75,0,0,1,2.81,2.07,4.28,4.28,0,0,1,.8,2.39A17.92,17.92,0,0,1,90.42,15L90,16.75" style="fill:#fff;fill-rule:evenodd"/><path d="M113.66,18.55h-8.91l.89-3.58a7.05,7.05,0,0,0,.33-2.54c-.09-.44-.41-.67-1-.67a1.44,1.44,0,0,0-1.24.59,8.69,8.69,0,0,0-.94,2.62L99.17,29.61A5.61,5.61,0,0,0,99,32.1a1,1,0,0,0,1,.83,1.73,1.73,0,0,0,1.52-.86,12.29,12.29,0,0,0,1.16-3.28l.92-3.69H112a57.42,57.42,0,0,1-1.66,5.57,12.45,12.45,0,0,1-2.52,3.82,12,12,0,0,1-4.19,2.94,14,14,0,0,1-5.51,1,10.69,10.69,0,0,1-6-1.37,5.38,5.38,0,0,1-2.35-3.84,19.8,19.8,0,0,1,.78-7l2.21-8.82a20.71,20.71,0,0,1,2.28-6,11.17,11.17,0,0,1,4.29-3.59,14.08,14.08,0,0,1,6.71-1.58A10.12,10.12,0,0,1,112,7.83a5.49,5.49,0,0,1,2.5,4,20.43,20.43,0,0,1-.82,6.76" style="fill:#fff;fill-rule:evenodd"/><path d="M130.83,0,129.6,4.94h-9.73L121.1,0Zm-1.71,6.83-7.76,31h-9.72l7.75-31Z" style="fill:#fff;fill-rule:evenodd"/></svg>